# xmcd CD database file
#
# Track frame offsets:
#	183
#	16335
#	37618
#	57970
#	72618
#	100565
#	125683
#	138308
#	151763
#
# Disc length: 2567 seconds
#
# Revision: 0
# Processed by: cddbd v1.4PL0 Copyright (c) Steve Scherf et al.
# Submitted via: CDex 1.50beta9
#
DISCID=6c0a0509
DTITLE=Double Trouble - Jedmädsede! Wamna
DYEAR=1992
DGENRE=Blues
TTITLE0=Shotgun
TTITLE1=After Midnight
TTITLE2=Tortillas In The Sun
TTITLE3=Riding On The L and N
TTITLE4=Oh, What A Day!
TTITLE5=Divin' Duck
TTITLE6=Who'll Stop The Rain
TTITLE7=Hey Gouder Mo
TTITLE8=So Many Roads
EXTD=YEAR: 1992
EXTT0=
EXTT1=
EXTT2=
EXTT3=
EXTT4=
EXTT5=
EXTT6=
EXTT7=
EXTT8=
PLAYORDER=
